<svg width="30" height="29" viewBox="0 0 30 29" fill="none" xmlns="http://www.w3.org/2000/svg">
<path d="M26.746 20.155C26.1207 21.5438 25.8194 22.1646 25.0151 23.3903C23.8891 25.1031 22.3009 27.2418 20.3388 27.2554C18.592 27.2713 18.1412 26.1158 15.7691 26.1362C13.3992 26.1475 12.9053 27.2781 11.1563 27.26C9.19196 27.2418 7.68985 25.3161 6.56383 23.6055C3.41461 18.8092 3.08157 13.1859 5.02774 10.1953C6.40524 8.07464 8.5825 6.82855 10.6284 6.82855C12.7127 6.82855 14.0223 7.97269 15.7441 7.97269C17.4162 7.97269 18.4334 6.82628 20.8441 6.82628C22.6656 6.82628 24.5914 7.81863 25.9689 9.53144C21.4648 12.001 22.1966 18.4331 26.746 20.155ZM19.0134 4.91183C19.8902 3.78582 20.5563 2.19761 20.3139 0.579956C18.8843 0.677378 17.2123 1.59043 16.2358 2.77308C15.3499 3.85152 14.6159 5.45105 14.9013 6.99847C16.4623 7.04832 18.0777 6.11714 19.0134 4.91183Z" fill="black"/>
</svg>
