<svg width="24" height="25" viewBox="0 0 24 25" fill="none" xmlns="http://www.w3.org/2000/svg">
<path fill-rule="evenodd" clip-rule="evenodd" d="M12 0.372559C5.37527 0.372559 0 5.74783 0 12.3726C0 18.9973 5.37527 24.3726 12 24.3726C18.6117 24.3726 24 18.9973 24 12.3726C24 5.74783 18.6117 0.372559 12 0.372559ZM19.9262 5.90401C21.3579 7.64805 22.217 9.87363 22.243 12.2814C21.9046 12.2164 18.5206 11.5266 15.1106 11.9561C15.0325 11.7869 14.9675 11.6046 14.8894 11.4225C14.6811 10.9279 14.4469 10.4203 14.2126 9.93873C17.9869 8.40296 19.705 6.19035 19.9262 5.90401ZM12 2.14263C14.603 2.14263 16.9848 3.11877 18.7939 4.71963C18.6117 4.97994 17.0629 7.04935 13.4186 8.41593C11.7397 5.33134 9.87855 2.8064 9.5922 2.41594C10.3601 2.23373 11.1671 2.14263 12 2.14263ZM7.63995 3.10575C7.91325 3.47017 9.73538 6.00813 11.4404 9.02763C6.65076 10.3032 2.42083 10.2771 1.96529 10.2771C2.62907 7.10141 4.77657 4.45932 7.63995 3.10575ZM1.74404 12.3856C1.74404 12.2814 1.74404 12.1773 1.74404 12.0732C2.18655 12.0862 7.15835 12.1513 12.2733 10.6155C12.5727 11.1882 12.846 11.7738 13.1063 12.3595C12.9761 12.3986 12.8329 12.4377 12.7028 12.4767C7.41865 14.1816 4.60738 18.8411 4.3731 19.2315C2.7462 17.4225 1.74404 15.0147 1.74404 12.3856ZM12 22.6285C9.6312 22.6285 7.44469 21.8216 5.71367 20.468C5.89588 20.0906 7.97827 16.0819 13.757 14.0646C13.783 14.0515 13.7961 14.0515 13.8221 14.0385C15.2668 17.7738 15.8525 20.9105 16.0087 21.8085C14.7722 22.3422 13.4186 22.6285 12 22.6285ZM17.7136 20.8715C17.6096 20.2467 17.0629 17.2533 15.7223 13.5699C18.9371 13.0623 21.7484 13.8954 22.0998 14.0125C21.6573 16.8628 20.0173 19.3227 17.7136 20.8715Z" fill="#D6BBFB"/>
</svg>
