<svg width="19" height="19" viewBox="0 0 19 19" fill="none" xmlns="http://www.w3.org/2000/svg">
<path d="M4.07812 6.87331V12.8733M7.45312 6.87331V12.8733M11.2031 6.87331V12.8733M14.5781 6.87331V12.8733M2.57813 14.0733L2.57813 14.6733C2.57812 15.0933 2.57812 15.3034 2.65987 15.4638C2.73178 15.6049 2.84651 15.7197 2.98763 15.7916C3.14807 15.8733 3.35809 15.8733 3.77812 15.8733H14.8781C15.2982 15.8733 15.5082 15.8733 15.6686 15.7916C15.8097 15.7197 15.9245 15.6049 15.9964 15.4638C16.0781 15.3034 16.0781 15.0933 16.0781 14.6733V14.0733C16.0781 13.6533 16.0781 13.4432 15.9964 13.2828C15.9245 13.1417 15.8097 13.027 15.6686 12.9551C15.5082 12.8733 15.2982 12.8733 14.8781 12.8733H3.77813C3.35809 12.8733 3.14807 12.8733 2.98763 12.9551C2.84651 13.027 2.73178 13.1417 2.65987 13.2828C2.57813 13.4432 2.57813 13.6533 2.57813 14.0733ZM9.06781 2.43115L3.51781 3.66449C3.18251 3.739 3.01487 3.77625 2.88972 3.86641C2.77934 3.94593 2.69267 4.05398 2.63899 4.17898C2.57813 4.3207 2.57813 4.49244 2.57813 4.83591L2.57813 5.67331C2.57812 6.09334 2.57812 6.30336 2.65987 6.4638C2.73178 6.60492 2.84651 6.71966 2.98763 6.79156C3.14807 6.87331 3.35809 6.87331 3.77812 6.87331H14.8781C15.2982 6.87331 15.5082 6.87331 15.6686 6.79156C15.8097 6.71966 15.9245 6.60492 15.9964 6.4638C16.0781 6.30337 16.0781 6.09335 16.0781 5.67331V4.83591C16.0781 4.49244 16.0781 4.3207 16.0173 4.17898C15.9636 4.05398 15.8769 3.94593 15.7665 3.86641C15.6414 3.77625 15.4737 3.739 15.1384 3.66449L9.58844 2.43115C9.4913 2.40957 9.44272 2.39877 9.39364 2.39447C9.35005 2.39065 9.3062 2.39065 9.26261 2.39447C9.21352 2.39877 9.16495 2.40957 9.06781 2.43115Z" stroke="#7F56D9" stroke-width="1.5" stroke-linecap="round" stroke-linejoin="round"/>
</svg>
