<svg width="32" height="32" viewBox="0 0 32 32" fill="none" xmlns="http://www.w3.org/2000/svg">
<path d="M7.99935 14.6667V20M23.9993 12V17.3333M22.666 5.33334C25.931 5.33334 27.6969 5.83302 28.5755 6.22059C28.6925 6.27221 28.751 6.29801 28.9199 6.45916C29.0211 6.55576 29.2059 6.83919 29.2534 6.97079C29.3327 7.19032 29.3327 7.31032 29.3327 7.55033V21.8815C29.3327 23.0932 29.3327 23.6991 29.151 24.0105C28.9661 24.3272 28.7879 24.4745 28.4419 24.5963C28.1018 24.7159 27.4153 24.584 26.0422 24.3202C25.0812 24.1355 23.9414 24 22.666 24C18.666 24 14.666 26.6667 9.33268 26.6667C6.06774 26.6667 4.30184 26.167 3.42319 25.7794C3.30618 25.7278 3.24767 25.702 3.07882 25.5408C2.9776 25.4442 2.79284 25.1608 2.74531 25.0292C2.66602 24.8097 2.66602 24.6897 2.66602 24.4497L2.66602 10.1185C2.66602 8.90678 2.66602 8.30094 2.84772 7.98953C3.03255 7.67275 3.2108 7.52549 3.55676 7.40375C3.89686 7.28407 4.58339 7.41598 5.95645 7.6798C6.91751 7.86446 8.05732 8 9.33268 8C13.3327 8 17.3327 5.33334 22.666 5.33334ZM19.3327 16C19.3327 17.8409 17.8403 19.3333 15.9993 19.3333C14.1584 19.3333 12.666 17.8409 12.666 16C12.666 14.1591 14.1584 12.6667 15.9993 12.6667C17.8403 12.6667 19.3327 14.1591 19.3327 16Z" stroke="#7F56D9" stroke-width="2" stroke-linecap="round" stroke-linejoin="round"/>
</svg>
