<svg width="337" height="25" viewBox="0 0 337 25" fill="none" xmlns="http://www.w3.org/2000/svg">
<g clip-path="url(#clip0_4971_10059)">
<g clip-path="url(#clip1_4971_10059)">
<path d="M35.8281 1.12305H4.82812C3.17127 1.12305 1.82812 2.46619 1.82812 4.12305V21.123C1.82812 22.7799 3.17127 24.123 4.82812 24.123H35.8281C37.485 24.123 38.8281 22.7799 38.8281 21.123V4.12305C38.8281 2.46619 37.485 1.12305 35.8281 1.12305Z" fill="white" stroke="#E6E4EB"/>
<path d="M19.6897 8.3528L18.0867 16.9048H16.1467L17.7517 8.3548H19.6897V8.3528ZM27.8497 13.8728L28.8717 10.6728L29.4587 13.8728H27.8497ZM30.0137 16.9028H31.8057L30.2417 8.3528H28.5847C28.2147 8.3528 27.8987 8.5998 27.7597 8.9798L24.8517 16.9038H26.8857L27.2917 15.6268H29.7797L30.0137 16.9028ZM24.9517 14.1028C24.9617 11.8428 22.2157 11.7198 22.2347 10.7028C22.2407 10.3948 22.4967 10.0688 23.0567 9.98481C23.3347 9.94281 24.0997 9.91181 24.9687 10.3668L25.3087 8.5528C24.7353 8.30691 24.1185 8.17838 23.4947 8.1748C21.5787 8.1748 20.2287 9.3378 20.2177 11.0048C20.2077 12.2348 21.1807 12.9218 21.9157 13.3318C22.6707 13.7518 22.9237 14.0198 22.9217 14.3958C22.9157 14.9678 22.3177 15.2218 21.7617 15.2298C20.7867 15.2498 20.2197 14.9298 19.7697 14.6928L19.4277 16.5828C19.8807 16.8198 20.7157 17.0248 21.5847 17.0368C23.6217 17.0368 24.9547 15.8868 24.9587 14.1118L24.9517 14.1028ZM16.9177 8.3528L13.7777 16.9028H11.7277L10.1807 10.0778C10.0857 9.6578 10.0037 9.5048 9.71869 9.3278C9.25269 9.0378 8.48369 8.7678 7.80469 8.5998L7.85169 8.3528H11.1517C11.5717 8.3528 11.9497 8.6708 12.0457 9.2248L12.8617 14.1728L14.8797 8.3528H16.9177Z" fill="#10347E"/>
</g>
</g>
<g clip-path="url(#clip2_4971_10059)">
<g clip-path="url(#clip3_4971_10059)">
<path fill-rule="evenodd" clip-rule="evenodd" d="M52.3281 1.12305C51.9998 1.12305 51.6747 1.18771 51.3714 1.31335C51.0681 1.43898 50.7925 1.62313 50.5604 1.85528C50.0915 2.32412 49.8281 2.96001 49.8281 3.62305V21.623C49.8281 22.2861 50.0915 22.922 50.5604 23.3908C50.7925 23.623 51.0681 23.8071 51.3714 23.9327C51.6747 24.0584 51.9998 24.123 52.3281 24.123H84.3281C84.9912 24.123 85.6271 23.8597 86.0959 23.3908C86.5647 22.922 86.8281 22.2861 86.8281 21.623V3.62305C86.8281 3.29474 86.7635 2.96965 86.6378 2.66634C86.5122 2.36302 86.328 2.08743 86.0959 1.85528C85.8637 1.62313 85.5881 1.43898 85.2848 1.31335C84.9815 1.18771 84.6564 1.12305 84.3281 1.12305H52.3281Z" fill="white" stroke="#E6E4EB"/>
<path d="M65.4805 7.68848H71.1545V17.5825H65.4805V7.68848Z" fill="#FF5F00"/>
<path d="M65.8403 12.6205C65.8383 10.6925 66.7523 8.87052 68.3203 7.68052C65.6603 5.65752 61.8373 5.95052 59.5423 8.35752C58.4377 9.50115 57.8203 11.029 57.8203 12.619C57.8203 14.209 58.4377 15.7369 59.5423 16.8805C61.8383 19.2865 65.6593 19.5805 68.3203 17.5575C66.7543 16.3575 65.8403 14.5585 65.8403 12.6205Z" fill="#EB001B"/>
<path d="M78.8203 12.6201C78.8203 15.0241 77.4023 17.2171 75.1663 18.2681C72.9303 19.3191 70.2903 19.0441 68.3203 17.5561C69.8863 16.3561 70.8003 14.5461 70.8003 12.6181C70.8003 10.6901 69.8863 8.87105 68.3203 7.68005C70.2903 6.19205 72.9303 5.91805 75.1663 6.97005C77.4023 8.02205 78.8203 10.2141 78.8203 12.6181V12.6211V12.6201Z" fill="#F79E1B"/>
</g>
</g>
<g clip-path="url(#clip4_4971_10059)">
<g clip-path="url(#clip5_4971_10059)">
<path fill-rule="evenodd" clip-rule="evenodd" d="M100.328 1.12305C99.9998 1.12305 99.6747 1.18771 99.3714 1.31335C99.0681 1.43898 98.7925 1.62313 98.5604 1.85528C98.0915 2.32412 97.8281 2.96001 97.8281 3.62305V21.623C97.8281 22.2861 98.0915 22.922 98.5604 23.3908C98.7925 23.623 99.0681 23.8071 99.3714 23.9327C99.6747 24.0584 99.9998 24.123 100.328 24.123H132.328C132.991 24.123 133.627 23.8597 134.096 23.3908C134.565 22.922 134.828 22.2861 134.828 21.623V3.62305C134.828 3.29474 134.763 2.96965 134.638 2.66634C134.512 2.36302 134.328 2.08743 134.096 1.85528C133.864 1.62313 133.588 1.43898 133.285 1.31335C132.982 1.18771 132.656 1.12305 132.328 1.12305H100.328Z" fill="#1174B8" stroke="#E6E4EB"/>
<path d="M108.187 12.8632H109.607L108.907 10.7812L108.207 12.8632H108.187ZM127.987 8.90823H124.347L123.457 10.0532L122.657 8.90823H114.932L114.233 10.7812L113.532 8.90823H110.407V9.74123L110.053 8.90823H107.388L104.812 16.1932H107.921L108.275 15.0482H109.164L109.518 16.1932H112.982V15.3602L113.247 16.1932H115.023L115.289 15.2562V16.1932H122.392L123.28 15.0482L124.08 16.1932H127.72L125.41 12.5502L127.986 8.90723L127.987 8.90823ZM117.243 15.1532H116.265V11.0932L114.755 15.1532H113.868L112.357 11.0932V15.1532H110.327L109.973 14.0082H107.843L107.487 15.1532H106.322L108.187 9.94923H109.697L111.383 14.8412V9.95023H113.07L114.403 13.4902L115.646 9.95023H117.332V15.1542H117.243V15.1532ZM126.042 15.1532H124.71L123.556 13.3832L122.224 15.1532H118.228V9.95023H122.312L123.556 11.6152L124.887 9.95023H126.13L124.167 12.5532L126.032 15.1552L126.042 15.1532ZM119.205 10.9902V11.9272H121.425V12.9672H119.205V14.0072H121.691L122.845 12.4472L121.78 10.9902H119.198H119.205Z" fill="white"/>
</g>
</g>
<g clip-path="url(#clip6_4971_10059)">
<g clip-path="url(#clip7_4971_10059)">
<path d="M179.828 1.12305H148.828C147.171 1.12305 145.828 2.46619 145.828 4.12305V21.123C145.828 22.7799 147.171 24.123 148.828 24.123H179.828C181.485 24.123 182.828 22.7799 182.828 21.123V4.12305C182.828 2.46619 181.485 1.12305 179.828 1.12305Z" fill="white" stroke="#E6E4EB"/>
<path d="M169.227 14.4226H170.627C170.682 14.4218 170.738 14.4151 170.793 14.4026C171.083 14.3226 171.286 14.0126 171.286 13.6576C171.286 13.3026 171.081 12.9936 170.793 12.9116C170.738 12.8998 170.682 12.8934 170.627 12.8926H169.227V14.4226Z" fill="url(#paint0_linear_4971_10059)"/>
<path d="M170.562 5.25489C169.185 5.25089 168.065 6.35289 168.06 7.71489V10.2729H171.6L171.846 10.2829C172.646 10.3229 173.238 10.7279 173.238 11.4299C173.238 11.9859 172.834 12.4549 172.098 12.5619V12.5889C172.911 12.6449 173.532 13.0839 173.532 13.7759C173.532 14.5259 172.849 15.0059 171.94 15.0059H168.059V20.0259H171.729C173.109 20.0259 174.231 18.9239 174.231 17.5639V5.25489H170.562Z" fill="url(#paint1_linear_4971_10059)"/>
<path d="M171.287 11.3655C171.293 11.1175 171.067 10.9025 170.757 10.8655L170.609 10.8555H169.227V11.8735H170.607C170.657 11.8735 170.705 11.8695 170.755 11.8635C171.063 11.8265 171.29 11.6135 171.285 11.3635L171.287 11.3655Z" fill="url(#paint2_linear_4971_10059)"/>
<path d="M156.67 5.25489C156.01 5.25289 155.374 5.51089 154.904 5.97289C154.434 6.43489 154.17 7.06289 154.168 7.71689V13.7969C154.87 14.1319 155.595 14.3529 156.333 14.3529C157.197 14.3529 157.673 13.8349 157.673 13.1349V10.2729H159.823V13.1289C159.823 14.2459 159.126 15.1429 156.735 15.1429C155.87 15.1434 155.009 15.041 154.168 14.8379V20.0259H157.838C159.218 20.0259 160.34 18.9239 160.34 17.5639V5.25489H156.668H156.67Z" fill="url(#paint3_linear_4971_10059)"/>
<path d="M163.868 5.25489C163.208 5.25289 162.572 5.51089 162.103 5.97289C161.634 6.43489 161.37 7.06289 161.368 7.71589V10.9389C162.003 10.4049 163.098 10.0689 164.876 10.1389C165.538 10.1789 166.196 10.2789 166.84 10.4319V11.4739C166.25 11.1668 165.604 10.9818 164.94 10.9299C163.59 10.8299 162.776 11.4799 162.776 12.6299C162.776 13.7799 163.576 14.4299 164.94 14.3299C165.601 14.2749 166.244 14.09 166.833 13.7859V14.8279C166.188 14.9819 165.531 15.0799 164.869 15.1219C163.089 15.2019 161.993 14.8659 161.359 14.3219V20.0059H165.029C166.409 20.0059 167.531 18.9039 167.531 17.5439V5.25489H163.857H163.868Z" fill="url(#paint4_linear_4971_10059)"/>
</g>
</g>
<g clip-path="url(#clip8_4971_10059)">
<g clip-path="url(#clip9_4971_10059)">
<mask id="mask0_4971_10059" style="mask-type:luminance" maskUnits="userSpaceOnUse" x="193" y="0" width="39" height="25">
<path d="M196.326 0.623047C195.533 0.623835 194.772 0.938851 194.21 1.49918C193.648 2.05952 193.331 2.81956 193.328 3.61305V21.633C193.328 23.283 194.668 24.623 196.326 24.623H228.331C229.124 24.6217 229.885 24.3065 230.446 23.7463C231.008 23.186 231.325 22.4263 231.328 21.633V3.61305C231.327 2.81933 231.01 2.05867 230.448 1.49808C229.886 0.937489 229.125 0.622781 228.331 0.623047H196.326Z" fill="#FEFEFE"/>
</mask>
<g mask="url(#mask0_4971_10059)">
<path d="M193.328 3.61305C193.328 1.96305 194.681 0.623047 196.326 0.623047H228.331C229.125 0.622781 229.886 0.937489 230.448 1.49808C231.01 2.05867 231.327 2.81933 231.328 3.61305V21.633C231.328 23.283 229.975 24.623 228.331 24.623H196.326C195.532 24.6236 194.771 24.309 194.208 23.7484C193.646 23.1877 193.33 22.4269 193.328 21.633V3.61305Z" fill="#FEFEFE"/>
</g>
<mask id="mask1_4971_10059" style="mask-type:luminance" maskUnits="userSpaceOnUse" x="192" y="-1" width="41" height="27">
<path d="M193.328 3.61305C193.328 1.96305 194.681 0.623047 196.326 0.623047H228.331C229.125 0.622781 229.886 0.937489 230.448 1.49808C231.01 2.05867 231.327 2.81933 231.328 3.61305V21.633C231.328 23.283 229.975 24.623 228.331 24.623H196.326C195.532 24.6236 194.771 24.309 194.208 23.7484C193.646 23.1877 193.33 22.4269 193.328 21.633V3.61305Z" stroke="#E5E2E9" stroke-width="2"/>
</mask>
<g mask="url(#mask1_4971_10059)">
<path d="M193.328 3.61305C193.328 1.96305 194.681 0.623047 196.326 0.623047H228.331C229.125 0.622781 229.886 0.937489 230.448 1.49808C231.01 2.05867 231.327 2.81933 231.328 3.61305V21.633C231.328 23.283 229.975 24.623 228.331 24.623H196.326C195.532 24.6236 194.771 24.309 194.208 23.7484C193.646 23.1877 193.33 22.4269 193.328 21.633V3.61305Z" stroke="#E5E2E9" stroke-width="2"/>
</g>
<path fill-rule="evenodd" clip-rule="evenodd" d="M223.162 4.62305H217.24C216.414 4.64905 215.4 5.32805 215.217 6.16605L212.417 19.076C212.232 19.922 212.734 20.611 213.542 20.623H219.762C220.557 20.581 221.329 19.91 221.512 19.083L224.312 6.17305C224.498 5.31805 223.983 4.62305 223.162 4.62305Z" fill="#0E7584"/>
<path fill-rule="evenodd" clip-rule="evenodd" d="M212.416 19.077L215.216 6.16905C215.4 5.33105 216.413 4.65205 217.226 4.62605L210.631 4.62305C209.815 4.64105 208.789 5.32305 208.604 6.16805L205.804 19.076C205.618 19.922 206.121 20.611 206.928 20.622H213.538C212.73 20.612 212.238 19.922 212.413 19.076" fill="#05417A"/>
<path fill-rule="evenodd" clip-rule="evenodd" d="M205.807 19.077L208.607 6.17002C208.791 5.32602 209.817 4.64302 210.633 4.62402H205.201C204.381 4.62402 203.328 5.31702 203.141 6.17102L200.341 19.078C200.325 19.1543 200.315 19.2315 200.309 19.309V19.549C200.364 20.166 200.816 20.615 201.465 20.624H206.931C206.124 20.614 205.631 19.923 205.807 19.077Z" fill="#CE1329"/>
<path fill-rule="evenodd" clip-rule="evenodd" d="M211.505 11.8929C211.609 11.7799 211.685 11.6089 211.729 11.3829L211.745 11.2829C211.749 11.2494 211.751 11.2157 211.751 11.1819C211.751 11.0499 211.717 10.9469 211.651 10.8739C211.585 10.8009 211.487 10.7639 211.364 10.7639C211.201 10.7639 211.068 10.8209 210.964 10.9359C210.86 11.0509 210.784 11.2259 210.737 11.4559L210.721 11.5619C210.717 11.5951 210.715 11.6285 210.716 11.6619C210.716 11.7939 210.75 11.8949 210.818 11.9659C210.886 12.0369 210.98 12.0739 211.106 12.0739C211.181 12.0763 211.255 12.0623 211.324 12.0329C211.393 12.0036 211.455 11.9595 211.506 11.9039L211.505 11.8929ZM210.382 12.3179C210.228 12.1699 210.15 11.9719 210.149 11.7179C210.149 11.6692 210.151 11.6204 210.157 11.5719L210.18 11.4149C210.25 11.0669 210.4 10.7899 210.628 10.5849C210.856 10.3799 211.134 10.2779 211.458 10.2779C211.723 10.2779 211.934 10.3519 212.088 10.4999C212.242 10.6479 212.318 10.8499 212.318 11.1049C212.318 11.1489 212.315 11.1999 212.308 11.2549L212.283 11.4149C212.215 11.7589 212.067 12.0329 211.837 12.2329C211.609 12.4336 211.314 12.5414 211.011 12.5349C210.745 12.5349 210.535 12.4619 210.381 12.3169L210.382 12.3179ZM209.455 9.55393H210.051L209.941 10.0739H209.346L209.446 9.55393H209.455ZM209.27 10.3359H209.86L209.4 12.4809H208.812L209.272 10.3359H209.27ZM206.11 11.2809C206.027 11.6889 205.833 12.0009 205.534 12.2239C205.235 12.4469 204.857 12.5519 204.388 12.5519C203.948 12.5519 203.625 12.4399 203.418 12.2159C203.272 12.0478 203.196 11.831 203.204 11.6089C203.205 11.4987 203.217 11.3888 203.24 11.2809L203.74 8.87793H204.493L204.001 11.2539C203.987 11.3136 203.98 11.3747 203.981 11.4359C203.981 11.5579 204.011 11.6579 204.081 11.7359C204.181 11.8509 204.316 11.9089 204.517 11.9089C204.747 11.9089 204.94 11.8519 205.087 11.7389C205.234 11.6259 205.332 11.4639 205.377 11.2549L205.871 8.87893H206.621L206.121 11.2819L206.11 11.2809ZM213.538 15.5039H214.151L214.141 15.7689H214.304C214.386 15.7689 214.427 15.7429 214.427 15.6909L214.477 15.5189H214.987L214.919 15.7689C214.862 15.9789 214.719 16.0869 214.461 16.0989H214.13V16.5519C214.124 16.6239 214.19 16.6519 214.324 16.6519H214.632L214.532 17.0119H213.796C213.59 17.0219 213.488 16.9219 213.491 16.7149L213.538 15.4949V15.5039ZM214.255 14.9719C214.335 14.9819 214.378 14.9519 214.383 14.8779L214.448 14.6439H213.384L213.294 14.9719H214.255ZM214.64 13.9419H213.578L213.451 14.3869C213.451 14.3869 213.628 14.2589 213.923 14.2539H214.555L214.64 13.9419ZM213.633 13.4769L213.603 13.7329C213.603 13.7329 213.957 13.4669 214.279 13.4669H215.479L215.024 15.1139C214.987 15.3019 214.824 15.3939 214.538 15.3939H213.18L212.864 16.5509C212.846 16.6129 212.872 16.6449 212.94 16.6449H213.205L213.108 17.0049H212.434C212.174 17.0049 212.067 16.9269 212.11 16.7699L213.002 13.4769H213.633ZM210.633 14.5509H212.513L212.393 14.9889H211.637L211.522 15.4119H212.257L212.137 15.8489H211.402L211.232 16.4739C211.19 16.5779 211.245 16.6239 211.398 16.6139H211.998L211.888 17.0209H210.738C210.518 17.0209 210.445 16.8959 210.513 16.6459L210.731 15.8489H210.261L210.381 15.4119H210.851L210.966 14.9889H210.516L210.636 14.5509H210.633ZM210.75 13.9739H210.853C210.947 13.9739 211.011 13.9419 211.041 13.8789L211.308 13.4789H212.024L211.874 13.7429H212.734L212.634 14.1449H211.614C211.496 14.3219 211.351 14.4049 211.177 14.3949H210.647L210.762 13.9749L210.75 13.9739Z" fill="#FEFEFE"/>
<path fill-rule="evenodd" clip-rule="evenodd" d="M217.243 4.94729L214.875 4.94629L217.229 4.94729" fill="#D23340"/>
<path fill-rule="evenodd" clip-rule="evenodd" d="M214.873 4.94634L210.665 4.94434L210.633 4.94634H214.873Z" fill="#2D4D79"/>
<path fill-rule="evenodd" clip-rule="evenodd" d="M219.064 11.6149C218.954 11.9349 218.711 12.1489 218.521 12.0879C218.331 12.0269 218.261 11.7179 218.374 11.3979C218.487 11.0779 218.727 10.8649 218.916 10.9249C219.105 10.9849 219.176 11.2949 219.064 11.6149ZM219.45 10.5089L219.2 10.6809C218.94 10.4769 218.7 10.3509 218.242 10.5639C217.616 10.8639 217.092 13.0799 218.816 12.3459L218.916 12.4629L219.593 12.4809L220.039 10.4579L219.451 10.5079L219.45 10.5089ZM221.206 12.8949C220.979 13.3779 220.763 13.6589 220.636 13.7889C220.509 13.9189 220.256 14.2189 219.651 14.1969L219.704 13.8289C220.214 13.6719 220.49 12.9629 220.647 12.6489L220.46 10.3489L220.854 10.3439H221.184L221.219 11.7919L221.839 10.3439H222.467L221.204 12.9039L221.206 12.8949ZM215.906 10.6189H216.593C216.773 10.6189 216.913 10.5769 217.018 10.4949C217.123 10.4129 217.188 10.2949 217.226 10.1129L217.241 10.0259L217.245 9.95093C217.245 9.82793 217.202 9.73893 217.115 9.68293C217.028 9.62693 216.889 9.59893 216.699 9.59893H216.116L215.916 10.6189H215.906ZM215.53 9.00293H217.075C217.372 9.00293 217.601 9.06993 217.759 9.20293C217.917 9.33593 217.995 9.52893 217.995 9.77893V9.78593L217.988 9.94593L217.958 10.1219C217.888 10.4519 217.731 10.7189 217.488 10.9219C217.245 11.1249 216.953 11.2239 216.618 11.2239H215.79L215.534 12.4809H214.816L215.53 9.00293ZM212.9 10.3329H213.432L213.372 10.6329L213.447 10.5429C213.526 10.4548 213.624 10.3846 213.732 10.3371C213.841 10.2897 213.958 10.2661 214.077 10.2679C214.3 10.2679 214.461 10.3319 214.562 10.4629C214.663 10.5939 214.69 10.7729 214.642 11.0069L214.35 12.4669H213.802L214.067 11.1429C214.094 11.0059 214.087 10.9029 214.045 10.8379C214.003 10.7729 213.925 10.7399 213.81 10.7399C213.67 10.7399 213.55 10.7829 213.455 10.8699C213.36 10.9569 213.295 11.0799 213.263 11.2339L213.018 12.4659H212.471L212.901 10.3199L212.9 10.3329ZM206.802 10.3329H207.335L207.273 10.6329L207.349 10.5429C207.428 10.4549 207.525 10.3848 207.634 10.3374C207.742 10.2899 207.86 10.2663 207.978 10.2679C208.202 10.2679 208.364 10.3319 208.464 10.4629C208.564 10.5939 208.591 10.7729 208.544 11.0069L208.252 12.4669H207.706L207.969 11.1429C207.997 11.0059 207.989 10.9029 207.949 10.8379C207.909 10.7729 207.829 10.7399 207.712 10.7399C207.572 10.7399 207.454 10.7829 207.358 10.8699C207.262 10.9569 207.198 11.0799 207.166 11.2339L206.921 12.4659H206.375L206.803 10.3199L206.802 10.3329ZM218.326 14.3629H220.514L220.386 14.8169H219.689L219.569 15.2369H220.265L220.135 15.6899H219.36L219.185 15.9549H219.565L219.653 16.4869C219.663 16.5389 219.711 16.5649 219.791 16.5649H219.909L219.785 17.0029H219.367C219.151 17.0129 219.04 16.9409 219.03 16.7829L218.93 16.2979L218.586 16.8139C218.551 16.8823 218.497 16.9385 218.429 16.9749C218.362 17.0114 218.285 17.0264 218.209 17.0179H217.572L217.696 16.5799H217.894C217.934 16.5793 217.974 16.57 218.01 16.5528C218.046 16.5355 218.078 16.5107 218.104 16.4799L218.644 15.6999H217.947L218.077 15.2469H218.833L218.953 14.8269H218.197L218.327 14.3729L218.326 14.3629ZM218.524 13.4569H219.2L219.228 13.7069C219.223 13.7699 219.261 13.8009 219.341 13.8009H219.461L219.341 14.2229H218.844C218.654 14.2329 218.557 14.1599 218.548 14.0029L218.524 13.4569ZM216.784 16.3469L216.921 15.8619H216.385L216.247 16.3469H216.784ZM216.65 14.9249L216.466 15.5949C216.466 15.5949 216.813 15.4249 217.051 15.4099L217.189 14.9259H216.649L216.65 14.9249ZM216.918 13.9869L216.735 14.6269C216.735 14.6269 217.047 14.5069 217.317 14.4719L217.455 13.9879L216.918 13.9869ZM216.142 13.9869L216.284 13.4869H217.002L216.972 13.6699C216.972 13.6699 217.339 13.4869 217.604 13.4869H218.494L218.352 13.9869H218.212L217.542 16.3469H217.682L217.549 16.8149H217.409L217.349 17.0189H216.654L216.711 16.8149H215.338L215.472 16.3469H215.61L216.28 13.9869H216.14H216.142Z" fill="#FEFEFE"/>
</g>
</g>
<g clip-path="url(#clip10_4971_10059)">
<g clip-path="url(#clip11_4971_10059)">
<path d="M275.828 1.12305H244.828C243.171 1.12305 241.828 2.46619 241.828 4.12305V21.123C241.828 22.7799 243.171 24.123 244.828 24.123H275.828C277.485 24.123 278.828 22.7799 278.828 21.123V4.12305C278.828 2.46619 277.485 1.12305 275.828 1.12305Z" fill="white" stroke="#E6E4EB"/>
<path d="M263.247 12.6112C263.246 11.8229 263.006 11.0534 262.559 10.4041C262.112 9.75488 261.479 9.25631 260.743 8.97416V16.2482C261.479 15.966 262.112 15.4674 262.559 14.8182C263.006 14.1689 263.246 13.3994 263.247 12.6112ZM257.952 16.2472V8.97716C257.216 9.26012 256.584 9.75878 256.137 10.4077C255.691 11.0566 255.451 11.8254 255.449 12.6132C255.45 13.4011 255.689 14.1703 256.136 14.8194C256.583 15.4684 257.216 15.9669 257.952 16.2492V16.2472ZM259.348 6.46516C258.268 6.46499 257.207 6.74908 256.272 7.28886C255.337 7.82865 254.561 8.6051 254.021 9.54016C253.481 10.4748 253.197 11.5351 253.197 12.6143C253.198 13.6935 253.482 14.7537 254.022 15.6882C254.698 16.8616 255.743 17.779 256.994 18.2977C258.246 18.8164 259.633 18.9075 260.942 18.5569C262.25 18.2063 263.406 17.4335 264.23 16.3586C265.054 15.2836 265.501 13.9667 265.5 12.6122C265.499 10.9814 264.85 9.41787 263.696 8.26533C262.543 7.11279 260.978 6.46463 259.348 6.46516ZM259.332 19.3382C255.615 19.3562 252.555 16.3462 252.555 12.6832C252.555 8.67816 255.615 5.91016 259.332 5.91016H261.074C264.748 5.91016 268.1 8.67716 268.1 12.6832C268.1 16.3452 264.748 19.3382 261.074 19.3382H259.332Z" fill="#184977"/>
</g>
</g>
<g clip-path="url(#clip12_4971_10059)">
<g clip-path="url(#clip13_4971_10059)">
<path d="M323.828 1.12305H292.828C291.171 1.12305 289.828 2.46619 289.828 4.12305V21.123C289.828 22.7799 291.171 24.123 292.828 24.123H323.828C325.485 24.123 326.828 22.7799 326.828 21.123V4.12305C326.828 2.46619 325.485 1.12305 323.828 1.12305Z" fill="white" stroke="#E6E4EB"/>
<path fill-rule="evenodd" clip-rule="evenodd" d="M326.33 13.8398C322.783 19.2898 315.118 22.5568 303.336 23.6438H324.33C324.86 23.6438 325.369 23.4331 325.744 23.0581C326.119 22.683 326.33 22.1743 326.33 21.6438V13.8398Z" fill="#E6772F"/>
<path d="M296.704 13.5778C296.421 13.8378 296.06 13.9498 295.482 13.9498H295.242V10.8628H295.482C296.06 10.8628 296.407 10.9678 296.704 11.2388C296.86 11.3885 296.985 11.5687 297.07 11.7684C297.154 11.9681 297.197 12.1829 297.196 12.3998C297.196 12.8498 297.011 13.2968 296.704 13.5748V13.5758V13.5778ZM295.661 10.0728H294.348V14.7388H295.652C296.345 14.7388 296.845 14.5688 297.284 14.1988C297.543 13.9778 297.752 13.7032 297.896 13.3939C298.039 13.0845 298.114 12.7478 298.115 12.4068C298.115 11.0298 297.105 10.0728 295.66 10.0728H295.661ZM298.527 10.0728H299.417V14.7388H298.527V10.0728ZM301.599 11.8628C301.062 11.6628 300.905 11.5278 300.905 11.2758C300.905 10.9828 301.185 10.7598 301.571 10.7598C301.838 10.7598 302.059 10.8698 302.293 11.1358L302.756 10.5158C302.39 10.1797 301.91 9.99437 301.414 9.99676C300.604 9.99676 299.987 10.5728 299.987 11.3318C299.987 11.9748 300.274 12.3018 301.111 12.6138C301.461 12.7378 301.638 12.8238 301.728 12.8798C301.81 12.9302 301.878 13.001 301.924 13.0852C301.971 13.1695 301.995 13.2644 301.995 13.3608C301.995 13.7408 301.7 14.0188 301.302 14.0188C300.878 14.0188 300.535 13.8018 300.328 13.3958L299.754 13.9638C300.164 14.5788 300.657 14.8538 301.336 14.8538C302.261 14.8538 302.916 14.2218 302.916 13.3208C302.916 12.5778 302.614 12.2408 301.599 11.8638M303.196 12.4088C303.189 12.7286 303.248 13.0464 303.366 13.3434C303.485 13.6403 303.663 13.9104 303.888 14.1376C304.113 14.3647 304.382 14.5444 304.678 14.6658C304.973 14.7873 305.291 14.8482 305.611 14.8448C305.995 14.8448 306.321 14.7668 306.727 14.5728V13.5008C306.369 13.8678 306.055 14.0108 305.65 14.0108C304.752 14.0108 304.115 13.3468 304.115 12.4028C304.115 11.5088 304.772 10.7998 305.61 10.7998C306.033 10.7998 306.356 10.9528 306.726 11.3258V10.2528C306.326 10.0528 306.016 9.96876 305.628 9.96876C305.307 9.9677 304.99 10.0301 304.694 10.1523C304.397 10.2746 304.128 10.4543 303.902 10.681C303.676 10.9078 303.496 11.1771 303.375 11.4735C303.253 11.7698 303.191 12.0874 303.193 12.4078M313.951 13.2078L312.731 10.0748H311.758L313.698 14.8578H314.175L316.152 10.0748H315.187L313.951 13.2078ZM316.556 14.7408H319.086V13.9408H317.45V12.6808H319.024V11.8808H317.451V10.8628H319.087V10.0628H316.559V14.7278M320.829 12.2078H320.569V10.7978H320.843C321.401 10.7978 321.698 11.0358 321.698 11.4908C321.698 11.9578 321.4 12.2088 320.828 12.2088L320.829 12.2078ZM322.619 11.4408C322.619 10.5658 322.032 10.0638 321.002 10.0638H319.676V14.7288H320.571V12.8628H320.686L321.918 14.7388H323.015L321.575 12.7728C322.248 12.6328 322.617 12.1628 322.617 11.4498L322.618 11.4508L322.619 11.4408Z" fill="#1A1919"/>
<path d="M311.889 12.4193C311.889 13.7623 310.822 14.8513 309.504 14.8513C308.186 14.8513 307.129 13.7623 307.129 12.4193C307.129 11.0763 308.196 9.9873 309.513 9.9873C310.83 9.9873 311.898 11.0773 311.898 12.4193" fill="#E6772F"/>
</g>
</g>
<defs>
<linearGradient id="paint0_linear_4971_10059" x1="67.1866" y1="102.084" x2="667.416" y2="102.084" gradientUnits="userSpaceOnUse">
<stop stop-color="#00763C"/>
<stop offset="0.31" stop-color="#238B37"/>
<stop offset="0.77" stop-color="#53A831"/>
<stop offset="1" stop-color="#65B32E"/>
</linearGradient>
<linearGradient id="paint1_linear_4971_10059" x1="290048" y1="440831" x2="338122" y2="440831" gradientUnits="userSpaceOnUse">
<stop stop-color="#00763C"/>
<stop offset="0.31" stop-color="#238B37"/>
<stop offset="0.77" stop-color="#53A831"/>
<stop offset="1" stop-color="#65B32E"/>
</linearGradient>
<linearGradient id="paint2_linear_4971_10059" x1="96926.7" y1="29047.3" x2="112971" y2="29047.3" gradientUnits="userSpaceOnUse">
<stop stop-color="#00763C"/>
<stop offset="0.31" stop-color="#238B37"/>
<stop offset="0.77" stop-color="#53A831"/>
<stop offset="1" stop-color="#65B32E"/>
</linearGradient>
<linearGradient id="paint3_linear_4971_10059" x1="163.821" y1="754.071" x2="794.593" y2="754.071" gradientUnits="userSpaceOnUse">
<stop stop-color="#312B6B"/>
<stop offset="0.13" stop-color="#2A3577"/>
<stop offset="0.71" stop-color="#0C5FA7"/>
<stop offset="1" stop-color="#006FB9"/>
</linearGradient>
<linearGradient id="paint4_linear_4971_10059" x1="171.08" y1="753.131" x2="783.602" y2="753.131" gradientUnits="userSpaceOnUse">
<stop stop-color="#6E2E2B"/>
<stop offset="0.39" stop-color="#A21A32"/>
<stop offset="0.8" stop-color="#D20738"/>
<stop offset="1" stop-color="#E4003A"/>
</linearGradient>
<clipPath id="clip0_4971_10059">
<rect width="40" height="24" fill="white" transform="translate(0.328125 0.623047)"/>
</clipPath>
<clipPath id="clip1_4971_10059">
<rect width="38" height="24" fill="white" transform="translate(1.32812 0.623047)"/>
</clipPath>
<clipPath id="clip2_4971_10059">
<rect width="40" height="24" fill="white" transform="translate(48.3281 0.623047)"/>
</clipPath>
<clipPath id="clip3_4971_10059">
<rect width="38" height="24" fill="white" transform="translate(49.3281 0.623047)"/>
</clipPath>
<clipPath id="clip4_4971_10059">
<rect width="40" height="24" fill="white" transform="translate(96.3281 0.623047)"/>
</clipPath>
<clipPath id="clip5_4971_10059">
<rect width="38" height="24" fill="white" transform="translate(97.3281 0.623047)"/>
</clipPath>
<clipPath id="clip6_4971_10059">
<rect width="40" height="24" fill="white" transform="translate(144.328 0.623047)"/>
</clipPath>
<clipPath id="clip7_4971_10059">
<rect width="38" height="24" fill="white" transform="translate(145.328 0.623047)"/>
</clipPath>
<clipPath id="clip8_4971_10059">
<rect width="40" height="24" fill="white" transform="translate(192.328 0.623047)"/>
</clipPath>
<clipPath id="clip9_4971_10059">
<rect width="38" height="24" fill="white" transform="translate(193.328 0.623047)"/>
</clipPath>
<clipPath id="clip10_4971_10059">
<rect width="40" height="24" fill="white" transform="translate(240.328 0.623047)"/>
</clipPath>
<clipPath id="clip11_4971_10059">
<rect width="38" height="24" fill="white" transform="translate(241.328 0.623047)"/>
</clipPath>
<clipPath id="clip12_4971_10059">
<rect width="40" height="24" fill="white" transform="translate(288.328 0.623047)"/>
</clipPath>
<clipPath id="clip13_4971_10059">
<rect width="38" height="24" fill="white" transform="translate(289.328 0.623047)"/>
</clipPath>
</defs>
</svg>
