<svg width="32" height="32" viewBox="0 0 32 32" fill="none" xmlns="http://www.w3.org/2000/svg">
<circle cx="16" cy="16" r="16" fill="#D7CBF3"/>
<path d="M13 22.75V12.25C13 11.5525 13 11.2038 13.0767 10.9177C13.2847 10.1412 13.8912 9.53472 14.6677 9.32667C14.9538 9.25 15.3025 9.25 16 9.25C16.6975 9.25 17.0462 9.25 17.3323 9.32667C18.1088 9.53472 18.7153 10.1412 18.9233 10.9177C19 11.2038 19 11.5525 19 12.25V22.75M10.9 22.75H21.1C21.9401 22.75 22.3601 22.75 22.681 22.5865C22.9632 22.4427 23.1927 22.2132 23.3365 21.931C23.5 21.6101 23.5 21.1901 23.5 20.35V14.65C23.5 13.8099 23.5 13.3899 23.3365 13.069C23.1927 12.7868 22.9632 12.5573 22.681 12.4135C22.3601 12.25 21.9401 12.25 21.1 12.25H10.9C10.0599 12.25 9.63988 12.25 9.31901 12.4135C9.03677 12.5573 8.8073 12.7868 8.66349 13.069C8.5 13.3899 8.5 13.8099 8.5 14.65V20.35C8.5 21.1901 8.5 21.6101 8.66349 21.931C8.8073 22.2132 9.03677 22.4427 9.31901 22.5865C9.63988 22.75 10.0599 22.75 10.9 22.75Z" stroke="#7F56D9" stroke-width="1.5" stroke-linecap="round" stroke-linejoin="round"/>
</svg>
