<svg width="32" height="32" viewBox="0 0 32 32" fill="none" xmlns="http://www.w3.org/2000/svg">
<path d="M18.0387 11.1358C17.2754 11.6799 16.3414 12 15.3327 12C12.7554 12 10.666 9.91066 10.666 7.33333C10.666 4.756 12.7554 2.66666 15.3327 2.66666C17.0033 2.66666 18.4689 3.54455 19.2934 4.86419M7.99935 26.7829H11.4797C11.9335 26.7829 12.3845 26.8369 12.8244 26.9449L16.5019 27.8385C17.2998 28.0329 18.1311 28.0518 18.9373 27.8952L23.0033 27.1041C24.0774 26.8949 25.0655 26.3806 25.8398 25.6273L28.7165 22.8289C29.5381 22.0311 29.5381 20.7366 28.7165 19.9374C27.9769 19.2179 26.8057 19.1369 25.9689 19.7471L22.6161 22.1931C22.136 22.5441 21.5518 22.7331 20.9509 22.7331H17.7133L19.7741 22.733C20.9356 22.733 21.8765 21.8178 21.8765 20.6879V20.2789C21.8765 19.3407 21.2201 18.5226 20.2848 18.2958L17.1041 17.5223C16.5865 17.3968 16.0564 17.3333 15.5235 17.3333C14.2371 17.3333 11.9085 18.3984 11.9085 18.3984L7.99935 20.0332M26.666 8.66666C26.666 11.244 24.5767 13.3333 21.9993 13.3333C19.422 13.3333 17.3327 11.244 17.3327 8.66666C17.3327 6.08934 19.422 4 21.9993 4C24.5767 4 26.666 6.08934 26.666 8.66666ZM2.66602 19.4667L2.66602 27.2C2.66602 27.9467 2.66602 28.3201 2.81134 28.6053C2.93917 28.8562 3.14315 29.0602 3.39403 29.188C3.67924 29.3333 4.05261 29.3333 4.79935 29.3333H5.86601C6.61275 29.3333 6.98612 29.3333 7.27134 29.188C7.52222 29.0602 7.72619 28.8562 7.85402 28.6053C7.99935 28.3201 7.99935 27.9467 7.99935 27.2V19.4667C7.99935 18.7199 7.99935 18.3466 7.85402 18.0613C7.72619 17.8105 7.52222 17.6065 7.27134 17.4787C6.98612 17.3333 6.61275 17.3333 5.86602 17.3333L4.79935 17.3333C4.05261 17.3333 3.67924 17.3333 3.39403 17.4787C3.14315 17.6065 2.93917 17.8105 2.81134 18.0613C2.66602 18.3466 2.66602 18.7199 2.66602 19.4667Z" stroke="#7F56D9" stroke-width="2" stroke-linecap="round" stroke-linejoin="round"/>
</svg>
