<svg width="18" height="19" viewBox="0 0 18 19" fill="none" xmlns="http://www.w3.org/2000/svg">
<path d="M9.00038 11.75C6.62282 11.75 4.50847 12.898 3.16237 14.6795C2.87265 15.0629 2.7278 15.2546 2.73253 15.5137C2.7362 15.7139 2.8619 15.9664 3.0194 16.09C3.22327 16.25 3.50578 16.25 4.0708 16.25H13.93C14.495 16.25 14.7775 16.25 14.9814 16.09C15.1389 15.9664 15.2646 15.7139 15.2682 15.5137C15.273 15.2546 15.1281 15.0629 14.8384 14.6795C13.4923 12.898 11.3779 11.75 9.00038 11.75Z" stroke="#7F56D9" stroke-width="1.5" stroke-linecap="round" stroke-linejoin="round"/>
<path d="M9.00038 9.5C10.8643 9.5 12.3754 7.98896 12.3754 6.125C12.3754 4.26104 10.8643 2.75 9.00038 2.75C7.13642 2.75 5.62538 4.26104 5.62538 6.125C5.62538 7.98896 7.13642 9.5 9.00038 9.5Z" stroke="#7F56D9" stroke-width="1.5" stroke-linecap="round" stroke-linejoin="round"/>
</svg>
