<svg width="16" height="15" viewBox="0 0 16 15" fill="none" xmlns="http://www.w3.org/2000/svg">
<path d="M8.00038 9.75C5.62282 9.75 3.50847 10.898 2.16237 12.6795C1.87265 13.0629 1.7278 13.2546 1.73253 13.5137C1.7362 13.7139 1.8619 13.9664 2.0194 14.09C2.22327 14.25 2.50578 14.25 3.0708 14.25H12.93C13.495 14.25 13.7775 14.25 13.9814 14.09C14.1389 13.9664 14.2646 13.7139 14.2682 13.5137C14.273 13.2546 14.1281 13.0629 13.8384 12.6795C12.4923 10.898 10.3779 9.75 8.00038 9.75Z" stroke="#D7CBF3" stroke-width="1.5" stroke-linecap="round" stroke-linejoin="round"/>
<path d="M8.00038 7.5C9.86434 7.5 11.3754 5.98896 11.3754 4.125C11.3754 2.26104 9.86434 0.75 8.00038 0.75C6.13642 0.75 4.62538 2.26104 4.62538 4.125C4.62538 5.98896 6.13642 7.5 8.00038 7.5Z" stroke="#D7CBF3" stroke-width="1.5" stroke-linecap="round" stroke-linejoin="round"/>
</svg>
