<svg width="17" height="13" viewBox="0 0 17 13" fill="none" xmlns="http://www.w3.org/2000/svg">
<path d="M15.8281 4.62305H0.828125M7.57812 7.62305H3.82812M0.828125 3.27305L0.828125 8.97305C0.828125 9.81312 0.828125 10.2332 0.991615 10.554C1.13543 10.8363 1.3649 11.0657 1.64714 11.2096C1.96801 11.373 2.38805 11.373 3.22812 11.373L13.4281 11.373C14.2682 11.373 14.6882 11.373 15.0091 11.2096C15.2914 11.0657 15.5208 10.8363 15.6646 10.554C15.8281 10.2332 15.8281 9.81313 15.8281 8.97305V3.27305C15.8281 2.43297 15.8281 2.01293 15.6646 1.69206C15.5208 1.40982 15.2914 1.18035 15.0091 1.03654C14.6882 0.873048 14.2682 0.873048 13.4281 0.873048L3.22813 0.873047C2.38805 0.873047 1.96801 0.873047 1.64714 1.03654C1.3649 1.18035 1.13543 1.40982 0.991615 1.69206C0.828125 2.01293 0.828125 2.43297 0.828125 3.27305Z" stroke="#7F56D9" stroke-width="1.5" stroke-linecap="round" stroke-linejoin="round"/>
</svg>
