<svg width="18" height="19" viewBox="0 0 18 19" fill="none" xmlns="http://www.w3.org/2000/svg">
<path d="M6 17V15.5M7.125 11.75V5.75M12 17V15.5M10.875 11.75V5.75M6.6 15.5H11.4C12.6601 15.5 13.2902 15.5 13.7715 15.2548C14.1948 15.039 14.539 14.6948 14.7548 14.2715C15 13.7902 15 13.1601 15 11.9V5.6C15 4.33988 15 3.70982 14.7548 3.22852C14.539 2.80516 14.1948 2.46095 13.7715 2.24524C13.2902 2 12.6601 2 11.4 2H6.6C5.33988 2 4.70982 2 4.22852 2.24524C3.80516 2.46095 3.46095 2.80516 3.24524 3.22852C3 3.70982 3 4.33988 3 5.6V11.9C3 13.1601 3 13.7902 3.24524 14.2715C3.46095 14.6948 3.80516 15.039 4.22852 15.2548C4.70982 15.5 5.33988 15.5 6.6 15.5Z" stroke="#7F56D9" stroke-width="1.5" stroke-linecap="round" stroke-linejoin="round"/>
</svg>
