<svg width="27" height="27" viewBox="0 0 27 27" fill="none" xmlns="http://www.w3.org/2000/svg">
<g clip-path="url(#clip0_3127_8464)">
<path d="M13.69 0.27002C10.1811 0.27002 6.81604 1.66389 4.33494 4.145C1.85383 6.6261 0.459961 9.99121 0.459961 13.5C0.459961 17.0088 1.85383 20.3739 4.33494 22.855C6.81604 25.3361 10.1811 26.73 13.69 26.73C17.1988 26.73 20.5639 25.3361 23.045 22.855C25.5261 20.3739 26.92 17.0088 26.92 13.5C26.92 9.99121 25.5261 6.6261 23.045 4.145C20.5639 1.66389 17.1988 0.27002 13.69 0.27002Z" fill="#3F51B5"/>
<path d="M16.6484 13.5H14.7918V20.115H12.0356V13.5H10.3818V11.295H12.0356V9.9665C12.0367 8.03271 12.8399 6.88501 15.1182 6.88501H16.9968V9.09001H15.7361C14.8492 9.09001 14.7918 9.42076 14.7918 10.0398V11.295H16.9968L16.6484 13.5Z" fill="white"/>
</g>
<defs>
<clipPath id="clip0_3127_8464">
<rect width="26.46" height="26.46" fill="white" transform="translate(0.459961 0.27002)"/>
</clipPath>
</defs>
</svg>
