<svg width="24" height="25" viewBox="0 0 24 25" fill="none" xmlns="http://www.w3.org/2000/svg">
<g clip-path="url(#clip0_359_14605)">
<path d="M24 12.3726C24 5.74514 18.6274 0.372559 12 0.372559C5.37258 0.372559 0 5.74514 0 12.3726C0 18.362 4.3882 23.3265 10.125 24.2268V15.8413H7.07812V12.3726H10.125V9.72881C10.125 6.72131 11.9166 5.06006 14.6576 5.06006C15.9701 5.06006 17.3438 5.29443 17.3438 5.29443V8.24756H15.8306C14.34 8.24756 13.875 9.17264 13.875 10.1226V12.3726H17.2031L16.6711 15.8413H13.875V24.2268C19.6118 23.3265 24 18.362 24 12.3726Z" fill="#D6BBFB"/>
</g>
<defs>
<clipPath id="clip0_359_14605">
<rect width="24" height="24" fill="white" transform="translate(0 0.372559)"/>
</clipPath>
</defs>
</svg>
