<svg width="17" height="17" viewBox="0 0 17 17" fill="none" xmlns="http://www.w3.org/2000/svg">
<g clip-path="url(#clip0_4961_9239)">
<path d="M5.47933 16.5H6.14467C6.386 16.5 6.61 16.376 6.73667 16.1707L10.8487 9.56667L15.1593 9.54133C15.75 9.55467 16.2353 9.08667 16.25 8.5C16.234 7.91333 15.75 7.444 15.1593 7.45867L10.8487 7.43333L6.738 0.828C6.61 0.624 6.386 0.5 6.14467 0.5H5.47933C4.99 0.5 4.65267 0.989333 4.82733 1.44667L7.11533 7.43333H3.31133L2.426 5.66C2.314 5.43733 2.09267 5.29067 1.84467 5.276L0.25 5.17867L1.71267 8.5L0.25 11.8213L1.84467 11.724C2.09267 11.7093 2.314 11.5627 2.426 11.34L3.31133 9.56667H7.11533L4.82733 15.5533C4.65267 16.0107 4.99 16.5 5.47933 16.5Z" fill="#7F56D9"/>
</g>
<defs>
<clipPath id="clip0_4961_9239">
<rect width="16" height="16" fill="white" transform="translate(0.25 0.5)"/>
</clipPath>
</defs>
</svg>
