<svg width="24" height="25" viewBox="0 0 24 25" fill="none" xmlns="http://www.w3.org/2000/svg">
<g clip-path="url(#clip0_359_14606)">
<path fill-rule="evenodd" clip-rule="evenodd" d="M12 0.372559C5.3724 0.372559 0 5.75336 0 12.393C0 17.703 3.438 22.209 8.2068 23.7978C8.8068 23.9082 9.0252 23.5374 9.0252 23.2182C9.0252 22.9338 9.0156 22.1766 9.0096 21.1746C5.6712 21.9006 4.9668 19.563 4.9668 19.563C4.422 18.1734 3.6348 17.8038 3.6348 17.8038C2.5452 17.0598 3.7176 17.0742 3.7176 17.0742C4.9212 17.1582 5.5548 18.3126 5.5548 18.3126C6.6252 20.1486 8.364 19.6182 9.0468 19.311C9.1572 18.5346 9.4668 18.0054 9.81 17.7054C7.146 17.4018 4.344 16.3698 4.344 11.7642C4.344 10.4526 4.812 9.37856 5.5788 8.53856C5.4552 8.23496 5.0436 7.01216 5.6964 5.35856C5.6964 5.35856 6.7044 5.03456 8.9964 6.58976C9.97532 6.32278 10.9853 6.18679 12 6.18536C13.02 6.19016 14.046 6.32336 15.0048 6.58976C17.2956 5.03456 18.3012 5.35736 18.3012 5.35736C18.9564 7.01216 18.5436 8.23496 18.4212 8.53856C19.1892 9.37856 19.6548 10.4526 19.6548 11.7642C19.6548 16.3818 16.848 17.3982 14.1756 17.6958C14.6064 18.0666 14.9892 18.7998 14.9892 19.9218C14.9892 21.5274 14.9748 22.8246 14.9748 23.2182C14.9748 23.5398 15.1908 23.9142 15.8004 23.7966C18.19 22.9951 20.2672 21.4629 21.7386 19.4166C23.2099 17.3703 24.001 14.9133 24 12.393C24 5.75336 18.6264 0.372559 12 0.372559Z" fill="#D6BBFB"/>
</g>
<defs>
<clipPath id="clip0_359_14606">
<rect width="24" height="24" fill="white" transform="translate(0 0.372559)"/>
</clipPath>
</defs>
</svg>
