<svg width="27" height="27" viewBox="0 0 27 27" fill="none" xmlns="http://www.w3.org/2000/svg">
<path d="M26.46 13.8007C26.46 12.8625 26.3741 11.9605 26.2146 11.0945H13.5V16.2121H20.7654C20.4525 17.8659 19.5014 19.267 18.0716 20.2052V23.5247H22.4346C24.9873 21.2215 26.46 17.8297 26.46 13.8007Z" fill="#4285F4"/>
<path d="M13.5016 26.73C17.1466 26.73 20.2025 25.5452 22.4361 23.5247L18.0731 20.2052C16.8644 20.999 15.3179 21.468 13.5016 21.468C9.98543 21.468 7.00935 19.1407 5.94771 16.0137H1.4375V19.4414C3.65893 23.7653 8.22436 26.73 13.5016 26.73Z" fill="#34A853"/>
<path d="M5.94607 16.0138C5.67607 15.22 5.52272 14.372 5.52272 13.5001C5.52272 12.6281 5.67607 11.7802 5.94607 10.9864V7.55859H1.43586C0.521639 9.34464 0 11.3653 0 13.5001C0 15.6348 0.521639 17.6555 1.43586 19.4415L5.94607 16.0138Z" fill="#FBBC04"/>
<path d="M13.5016 5.53199C15.4836 5.53199 17.2631 6.19944 18.6623 7.5104L22.5344 3.71577C20.1964 1.58098 17.1404 0.27002 13.5016 0.27002C8.22436 0.27002 3.65893 3.23473 1.4375 7.55856L5.94771 10.9863C7.00935 7.85928 9.98543 5.53199 13.5016 5.53199Z" fill="#E94235"/>
</svg>
