<svg width="18" height="25" viewBox="0 0 18 25" fill="none" xmlns="http://www.w3.org/2000/svg">
<path d="M14.7695 10.4694C15.318 8.94131 16.8977 4.521 16.8977 3.10537C16.8977 1.8585 16.1617 0.813184 14.8492 0.813184C12.7586 0.813184 10.8836 6.98662 10.2977 8.4585C9.84297 7.12256 7.71485 0.372559 5.83985 0.372559C4.38204 0.372559 3.69766 1.446 3.69766 2.796C3.69766 4.45068 5.30079 8.73975 5.88204 10.3897C5.58672 10.2819 5.26797 10.1882 4.94454 10.1882C3.84766 10.1882 2.68047 11.5522 2.68047 12.6538C2.68047 13.071 2.91016 13.6569 3.05547 14.046C1.32579 14.5147 0.660161 15.6679 0.660161 17.4069C0.655474 20.7913 3.86172 24.3726 8.3711 24.3726C13.9024 24.3726 17.343 20.2194 17.343 14.8616C17.343 12.8413 17.0195 11.0179 14.7695 10.4694ZM13.1102 5.43506C13.2977 4.8585 14.0992 2.421 14.8492 2.421C15.2523 2.421 15.3602 2.83818 15.3602 3.171C15.3602 4.06631 13.5508 9.01162 13.1524 10.1085L11.5586 9.82725L13.1102 5.43506ZM5.16954 2.63662C5.16954 2.07881 5.84923 0.494434 7.33985 4.84443L8.96172 9.546C8.23047 9.48506 7.66329 9.40537 7.30235 9.61162C6.79141 8.26162 5.16954 4.00068 5.16954 2.63662ZM5.06172 11.8101C6.43516 11.8101 8.20704 16.2444 8.20704 16.8444C8.20704 17.0835 7.97735 17.3788 7.71016 17.3788C6.73047 17.3788 4.10547 13.7741 4.10547 12.7991C4.11016 12.4382 4.70079 11.8101 5.06172 11.8101ZM13.7008 20.5429C12.3367 22.0429 10.593 22.821 8.5586 22.821C5.77422 22.821 3.57579 21.2929 2.51641 18.6819C1.71485 16.6476 2.69454 15.4804 3.48204 15.4804C4.01641 15.4804 6.02735 18.3069 6.02735 18.9069C6.02735 19.1366 5.66641 19.296 5.47891 19.296C4.72422 19.296 4.42891 18.5694 3.0836 16.8866C1.69141 18.2788 4.04454 20.9601 5.81641 20.9601C7.03985 20.9601 7.83673 19.8257 7.59766 18.9913C7.7711 18.9913 7.98672 19.0054 8.1461 18.9632C8.19766 20.2335 8.57266 21.7476 10.1008 21.8554C10.1008 21.8132 10.1945 21.5226 10.1945 21.5085C10.1945 20.6929 9.69766 19.9804 9.69766 19.1507C9.69766 17.8241 10.7149 16.5397 11.7461 15.7897C12.1211 15.5085 12.5758 15.3351 13.0164 15.1757C13.4711 15.0022 13.9539 14.8007 14.3008 14.4538C14.2492 13.9288 14.0336 13.4647 13.5086 13.4647C12.2102 13.4647 7.85547 13.6522 7.85547 11.6038C7.85547 11.2897 7.86016 10.9897 8.6711 10.9897C10.1852 10.9897 14.0289 11.3647 15.1539 12.3538C16.0023 13.1085 16.293 17.6601 13.7008 20.5429ZM9.07891 14.6366C9.5336 14.7819 10.0023 14.8241 10.4711 14.9179C10.1242 15.171 9.81485 15.4804 9.51954 15.8132C9.38829 15.4147 9.22891 15.0257 9.07891 14.6366Z" fill="#D6BBFB"/>
</svg>
