<svg width="24" height="25" viewBox="0 0 24 25" fill="none" xmlns="http://www.w3.org/2000/svg">
<g clip-path="url(#clip0_359_14604)">
<path d="M22.2234 0.372559H1.77187C0.792187 0.372559 0 1.146 0 2.10225V22.6382C0 23.5944 0.792187 24.3726 1.77187 24.3726H22.2234C23.2031 24.3726 24 23.5944 24 22.6429V2.10225C24 1.146 23.2031 0.372559 22.2234 0.372559ZM7.12031 20.8241H3.55781V9.36787H7.12031V20.8241ZM5.33906 7.80693C4.19531 7.80693 3.27188 6.8835 3.27188 5.74443C3.27188 4.60537 4.19531 3.68193 5.33906 3.68193C6.47813 3.68193 7.40156 4.60537 7.40156 5.74443C7.40156 6.87881 6.47813 7.80693 5.33906 7.80693ZM20.4516 20.8241H16.8937V15.2554C16.8937 13.9288 16.8703 12.2179 15.0422 12.2179C13.1906 12.2179 12.9094 13.6663 12.9094 15.1616V20.8241H9.35625V9.36787H12.7687V10.9335H12.8156C13.2891 10.0335 14.4516 9.08193 16.1813 9.08193C19.7859 9.08193 20.4516 11.4538 20.4516 14.5382V20.8241Z" fill="#D6BBFB"/>
</g>
<defs>
<clipPath id="clip0_359_14604">
<rect width="24" height="24" fill="white" transform="translate(0 0.372559)"/>
</clipPath>
</defs>
</svg>
