<svg width="109" height="40" viewBox="0 0 109 40" fill="none" xmlns="http://www.w3.org/2000/svg">
<g clip-path="url(#clip0_359_14050)">
<rect y="4" width="32" height="32" rx="16" fill="#35245B"/>
<path d="M20.8583 23.921C17.1028 25.6115 13.0908 26.9678 9.25302 27.7015C-0.96727 29.6553 -4.9226 20.3944 0.537907 11.5369C0.829571 11.0638 1.09392 10.5847 1.32025 10.0975C2.58967 7.36515 5.19504 4.9399 8.53183 3.45664C18.2914 -0.881651 31.4844 5.79361 32.8858 16.3816C33.257 19.1863 32.9092 22.3073 32.019 24.9928C31.3991 26.8631 30.6504 28.3986 29.6704 29.7315C25.9961 34.7287 19.2405 37.0981 13.0901 36.2947C9.47153 35.8219 6.63557 33.9414 3.27262 30.2682C5.80487 30.7151 7.24077 30.7288 9.83716 30.3864C14.0062 29.6565 16.2451 28.6837 20.3097 25.3407L21.3673 24.6435L22.4248 23.9463L23.442 25.3742L23.8749 24.9465L23.2489 22.9584L26.2755 20.4029L27.907 25.1338L28.6438 24.319L28.049 18.8247L29.3191 17.252C29.6253 16.8728 29.9754 16.419 29.8564 15.9463C29.6714 15.2113 28.5495 16.194 27.9626 16.6735L26.8153 17.6106L21.5 16.9533L20.7215 17.6355L25.2544 19.4132L22.7821 22.377L20.7699 21.8451L20.3787 22.4053L21.8288 23.4055L20.8583 23.921Z" fill="white"/>
</g>
<path d="M43.6818 21.1364V31.5H40.2841V14.0455H43.5455V16.8864H43.7614C44.1629 15.9621 44.7917 15.2197 45.6477 14.6591C46.5114 14.0985 47.5985 13.8182 48.9091 13.8182C50.0985 13.8182 51.1402 14.0682 52.0341 14.5682C52.928 15.0606 53.6212 15.7955 54.1136 16.7727C54.6061 17.75 54.8523 18.9583 54.8523 20.3977V31.5H51.4545V20.8068C51.4545 19.5417 51.125 18.553 50.4659 17.8409C49.8068 17.1212 48.9015 16.7614 47.75 16.7614C46.9621 16.7614 46.2614 16.9318 45.6477 17.2727C45.0417 17.6136 44.5606 18.1136 44.2045 18.7727C43.8561 19.4242 43.6818 20.2121 43.6818 21.1364ZM62.5341 25.5795L62.5114 21.4318H63.1023L70.0568 14.0455H74.125L66.1932 22.4545H65.6591L62.5341 25.5795ZM59.4091 31.5V8.22727H62.8068V31.5H59.4091ZM70.4318 31.5L64.1818 23.2045L66.5227 20.8295L74.6023 31.5H70.4318ZM84.0256 31.8523C82.3059 31.8523 80.8248 31.4848 79.5824 30.75C78.3475 30.0076 77.393 28.9659 76.7188 27.625C76.0521 26.2765 75.7188 24.697 75.7188 22.8864C75.7188 21.0985 76.0521 19.5227 76.7188 18.1591C77.393 16.7955 78.3324 15.7311 79.5369 14.9659C80.7491 14.2008 82.1657 13.8182 83.7869 13.8182C84.7718 13.8182 85.7263 13.9811 86.6506 14.3068C87.5748 14.6326 88.4044 15.1439 89.1392 15.8409C89.8741 16.5379 90.4536 17.4432 90.8778 18.5568C91.3021 19.6629 91.5142 21.0076 91.5142 22.5909V23.7955H77.6392V21.25H88.1847C88.1847 20.3561 88.0028 19.5644 87.6392 18.875C87.2756 18.178 86.7642 17.6288 86.1051 17.2273C85.4536 16.8258 84.6884 16.625 83.8097 16.625C82.8551 16.625 82.0218 16.8598 81.3097 17.3295C80.6051 17.7917 80.0597 18.3977 79.6733 19.1477C79.2945 19.8902 79.1051 20.697 79.1051 21.5682V23.5568C79.1051 24.7235 79.3097 25.7159 79.7188 26.5341C80.1354 27.3523 80.715 27.9773 81.4574 28.4091C82.1998 28.8333 83.0672 29.0455 84.0597 29.0455C84.7036 29.0455 85.2907 28.9545 85.821 28.7727C86.3513 28.5833 86.8097 28.303 87.196 27.9318C87.5824 27.5606 87.8778 27.1023 88.0824 26.5568L91.2983 27.1364C91.0407 28.0833 90.5786 28.9129 89.9119 29.625C89.2528 30.3295 88.4233 30.8788 87.4233 31.2727C86.4309 31.6591 85.2983 31.8523 84.0256 31.8523ZM95.2841 14.0455H98.6818V32.6364C98.6818 33.803 98.4697 34.7879 98.0455 35.5909C97.6288 36.3939 97.0076 37.0038 96.1818 37.4205C95.3636 37.8371 94.3523 38.0455 93.1477 38.0455C93.0265 38.0455 92.9129 38.0455 92.8068 38.0455C92.6932 38.0455 92.5758 38.0417 92.4545 38.0341V35.1136C92.5606 35.1136 92.6553 35.1136 92.7386 35.1136C92.8144 35.1136 92.9015 35.1136 93 35.1136C93.803 35.1136 94.3826 34.8977 94.7386 34.4659C95.1023 34.0417 95.2841 33.4242 95.2841 32.6136V14.0455ZM96.9659 11.3523C96.375 11.3523 95.8674 11.1553 95.4432 10.7614C95.0265 10.3598 94.8182 9.88257 94.8182 9.32954C94.8182 8.76894 95.0265 8.29167 95.4432 7.89773C95.8674 7.49621 96.375 7.29545 96.9659 7.29545C97.5568 7.29545 98.0606 7.49621 98.4773 7.89773C98.9015 8.29167 99.1136 8.76894 99.1136 9.32954C99.1136 9.88257 98.9015 10.3598 98.4773 10.7614C98.0606 11.1553 97.5568 11.3523 96.9659 11.3523ZM103.253 31.5V14.0455H106.651V31.5H103.253ZM104.969 11.3523C104.378 11.3523 103.87 11.1553 103.446 10.7614C103.029 10.3598 102.821 9.88257 102.821 9.32954C102.821 8.76894 103.029 8.29167 103.446 7.89773C103.87 7.49621 104.378 7.29545 104.969 7.29545C105.56 7.29545 106.063 7.49621 106.48 7.89773C106.904 8.29167 107.116 8.76894 107.116 9.32954C107.116 9.88257 106.904 10.3598 106.48 10.7614C106.063 11.1553 105.56 11.3523 104.969 11.3523Z" fill="white"/>
<defs>
<clipPath id="clip0_359_14050">
<rect y="4" width="32" height="32" rx="16" fill="white"/>
</clipPath>
</defs>
</svg>
