<svg width="32" height="32" viewBox="0 0 32 32" fill="none" xmlns="http://www.w3.org/2000/svg">
<circle cx="16" cy="16" r="16" fill="#D7CBF3"/>
<path d="M19 12.25C19 11.5525 19 11.2038 18.9233 10.9177C18.7153 10.1412 18.1088 9.53472 17.3323 9.32667C17.0462 9.25 16.6975 9.25 16 9.25C15.3025 9.25 14.9538 9.25 14.6677 9.32667C13.8912 9.53472 13.2847 10.1412 13.0767 10.9177C13 11.2038 13 11.5525 13 12.25M16.6 20.125H20.275C20.485 20.125 20.59 20.125 20.6702 20.0841C20.7408 20.0482 20.7982 19.9908 20.8341 19.9202C20.875 19.84 20.875 19.735 20.875 19.525V17.725C20.875 17.515 20.875 17.41 20.8341 17.3298C20.7982 17.2592 20.7408 17.2018 20.6702 17.1659C20.59 17.125 20.485 17.125 20.275 17.125H16.6C16.39 17.125 16.285 17.125 16.2048 17.1659C16.1342 17.2018 16.0768 17.2592 16.0409 17.3298C16 17.41 16 17.515 16 17.725V19.525C16 19.735 16 19.84 16.0409 19.9202C16.0768 19.9908 16.1342 20.0482 16.2048 20.0841C16.285 20.125 16.39 20.125 16.6 20.125ZM12.1 22.75H19.9C21.1601 22.75 21.7902 22.75 22.2715 22.5048C22.6948 22.289 23.039 21.9448 23.2548 21.5215C23.5 21.0402 23.5 20.4101 23.5 19.15V15.85C23.5 14.5899 23.5 13.9598 23.2548 13.4785C23.039 13.0552 22.6948 12.711 22.2715 12.4952C21.7902 12.25 21.1601 12.25 19.9 12.25H12.1C10.8399 12.25 10.2098 12.25 9.72852 12.4952C9.30516 12.711 8.96095 13.0552 8.74524 13.4785C8.5 13.9598 8.5 14.5899 8.5 15.85V19.15C8.5 20.4101 8.5 21.0402 8.74524 21.5215C8.96095 21.9448 9.30516 22.289 9.72852 22.5048C10.2098 22.75 10.8399 22.75 12.1 22.75Z" stroke="#7F56D9" stroke-width="1.5" stroke-linecap="round" stroke-linejoin="round"/>
</svg>
