<svg width="32" height="32" viewBox="0 0 32 32" fill="none" xmlns="http://www.w3.org/2000/svg">
<circle cx="16" cy="16" r="16" fill="#F0F0F1"/>
<g clip-path="url(#clip0_4971_10044)">
<path d="M8.5 16H23.5M8.5 12.25H12.25M19.75 12.25H23.5M8.5 19.75H12.25M19.75 19.75H23.5M12.25 23.5V8.5M19.75 23.5V8.5M12.1 23.5H19.9C21.1601 23.5 21.7902 23.5 22.2715 23.2548C22.6948 23.039 23.039 22.6948 23.2548 22.2715C23.5 21.7902 23.5 21.1601 23.5 19.9V12.1C23.5 10.8399 23.5 10.2098 23.2548 9.72852C23.039 9.30516 22.6948 8.96095 22.2715 8.74524C21.7902 8.5 21.1601 8.5 19.9 8.5H12.1C10.8399 8.5 10.2098 8.5 9.72852 8.74524C9.30516 8.96095 8.96095 9.30516 8.74524 9.72852C8.5 10.2098 8.5 10.8399 8.5 12.1V19.9C8.5 21.1601 8.5 21.7902 8.74524 22.2715C8.96095 22.6948 9.30516 23.039 9.72852 23.2548C10.2098 23.5 10.8399 23.5 12.1 23.5Z" stroke="#A3A7AB" stroke-width="1.5" stroke-linecap="round" stroke-linejoin="round"/>
</g>
<defs>
<clipPath id="clip0_4971_10044">
<rect width="18" height="18" fill="white" transform="translate(7 7)"/>
</clipPath>
</defs>
</svg>
