<svg width="32" height="32" viewBox="0 0 32 32" fill="none" xmlns="http://www.w3.org/2000/svg">
<circle cx="16" cy="16" r="16" fill="#F0F0F1"/>
<path d="M18.4835 14.5C19.5097 14.8197 20.4713 15.3393 21.3095 16.0375M23.9345 13.375C21.7426 11.443 18.9212 10.377 15.9995 10.377C15.5457 10.377 15.0944 10.4027 14.6474 10.4533M13.3969 18.7075C14.1583 18.1666 15.0691 17.876 16.0031 17.876C16.9371 17.876 17.8479 18.1666 18.6093 18.7075M15.9995 21.625H16.007M7.89453 13.5256C8.89474 12.609 10.0508 11.8598 11.3184 11.3223M10.5485 16.1822C11.5965 15.259 12.8808 14.5976 14.299 14.3004M18.7733 18.8313C18.0089 18.2322 17.0459 17.875 15.9994 17.875C14.9371 17.875 13.9608 18.2431 13.191 18.8587M9.24951 9.25L22.7495 22.75" stroke="#A3A7AB" stroke-width="1.5" stroke-linecap="round" stroke-linejoin="round"/>
</svg>
