<svg width="20" height="20" viewBox="0 0 20 20" fill="none" xmlns="http://www.w3.org/2000/svg">
<path d="M16.825 11.7173L15.8833 10.1507C15.675 9.80898 15.4917 9.15065 15.4917 8.75065V7.19232C15.4917 4.16732 13.0333 1.70898 10.0167 1.70898C6.99166 1.71732 4.53333 4.16732 4.53333 7.19232V8.74232C4.53333 9.14232 4.35 9.80065 4.15 10.1423L3.20833 11.709C2.85 12.3173 2.76666 13.009 2.99166 13.609C3.21666 14.2173 3.725 14.7007 4.39166 14.9173C5.29166 15.2173 6.2 15.434 7.125 15.5923C7.21666 15.609 7.30833 15.6173 7.4 15.634C7.51666 15.6507 7.64166 15.6673 7.76666 15.684C7.98333 15.7173 8.2 15.7423 8.425 15.759C8.95 15.809 9.48333 15.834 10.0167 15.834C10.5417 15.834 11.0667 15.809 11.5833 15.759C11.775 15.7423 11.9667 15.7257 12.15 15.7007C12.3 15.684 12.45 15.6673 12.6 15.6423C12.6917 15.634 12.7833 15.6173 12.875 15.6007C13.8083 15.4507 14.7333 15.2173 15.6333 14.9173C16.275 14.7007 16.7667 14.2173 17 13.6007C17.2333 12.9757 17.1667 12.2923 16.825 11.7173ZM10.625 8.33398C10.625 8.68398 10.3417 8.96732 9.99166 8.96732C9.64166 8.96732 9.35833 8.68398 9.35833 8.33398V5.75065C9.35833 5.40065 9.64166 5.11732 9.99166 5.11732C10.3417 5.11732 10.625 5.40065 10.625 5.75065V8.33398Z" fill="#7F56D9"/>
<path d="M12.3583 16.6743C12.0083 17.641 11.0833 18.3327 9.99999 18.3327C9.34166 18.3327 8.69166 18.066 8.23333 17.591C7.96666 17.341 7.76666 17.0077 7.64999 16.666C7.75833 16.6827 7.86666 16.691 7.98333 16.7077C8.17499 16.7327 8.37499 16.7577 8.57499 16.7743C9.04999 16.816 9.53333 16.841 10.0167 16.841C10.4917 16.841 10.9667 16.816 11.4333 16.7743C11.6083 16.7577 11.7833 16.7493 11.95 16.7243C12.0833 16.7077 12.2167 16.691 12.3583 16.6743Z" fill="#7F56D9"/>
</svg>
