<svg width="20" height="23" viewBox="0 0 20 23" fill="none" xmlns="http://www.w3.org/2000/svg">
<path d="M6.80868 2.6971L9.4382 1.71103C9.6461 1.63307 9.75005 1.59409 9.85698 1.57864C9.95183 1.56493 10.0482 1.56493 10.143 1.57864C10.25 1.59409 10.3539 1.63307 10.5618 1.71103L15.9236 3.72171C16.6722 4.00243 17.0465 4.1428 17.3223 4.38589C17.566 4.60064 17.7537 4.8715 17.8692 5.17506C18 5.51869 18 5.91845 18 6.71796V11.5004C18 12.2207 17.8847 12.9121 17.6818 13.5713M15.6219 17.126C13.9362 19.0864 11.7879 20.4793 10.6996 21.1143C10.4772 21.2441 10.366 21.309 10.2098 21.3425C10.0885 21.3685 9.91161 21.3685 9.79037 21.3425C9.63413 21.309 9.52342 21.2444 9.30201 21.1152C7.35396 19.9788 2 16.4088 2 11.5004V5.27667C2 4.80971 2.28966 4.39174 2.72688 4.22778M1 2.50036L19 20.5004" stroke="#7F56D9" stroke-width="2" stroke-linecap="round" stroke-linejoin="round"/>
</svg>
