<svg width="32" height="32" viewBox="0 0 32 32" fill="none" xmlns="http://www.w3.org/2000/svg">
<circle cx="16" cy="16" r="16" fill="#D7CBF3"/>
<path d="M13.75 15.625L15.25 17.125L18.625 13.75M22 16C22 19.6814 17.9845 22.3588 16.5235 23.2112C16.3574 23.3081 16.2744 23.3565 16.1573 23.3816C16.0663 23.4011 15.9337 23.4011 15.8427 23.3816C15.7256 23.3565 15.6426 23.3081 15.4765 23.2112C14.0155 22.3588 10 19.6814 10 16V12.4132C10 11.8136 10 11.5138 10.0981 11.2561C10.1847 11.0284 10.3255 10.8252 10.5082 10.6642C10.7151 10.4819 10.9958 10.3766 11.5573 10.166L15.5787 8.65803C15.7346 8.59956 15.8125 8.57032 15.8927 8.55874C15.9639 8.54846 16.0361 8.54846 16.1073 8.55874C16.1875 8.57032 16.2654 8.59956 16.4213 8.65803L20.4427 10.166C21.0042 10.3766 21.2849 10.4819 21.4918 10.6642C21.6745 10.8252 21.8153 11.0284 21.9019 11.2561C22 11.5138 22 11.8136 22 12.4132V16Z" stroke="#7F56D9" stroke-width="1.5" stroke-linecap="round" stroke-linejoin="round"/>
</svg>
