<svg width="18" height="13" viewBox="0 0 18 13" fill="none" xmlns="http://www.w3.org/2000/svg">
<path d="M1.81509 7.03488C1.71295 6.87315 1.66188 6.79229 1.63329 6.66756C1.61182 6.57387 1.61182 6.42613 1.63329 6.33244C1.66188 6.20771 1.71295 6.12685 1.81509 5.96512C2.65915 4.62863 5.17155 1.25 9.0003 1.25C12.8291 1.25 15.3415 4.62863 16.1855 5.96512C16.2877 6.12685 16.3387 6.20771 16.3673 6.33244C16.3888 6.42613 16.3888 6.57387 16.3673 6.66756C16.3387 6.79229 16.2877 6.87315 16.1855 7.03488C15.3415 8.37137 12.8291 11.75 9.0003 11.75C5.17155 11.75 2.65915 8.37137 1.81509 7.03488Z" stroke="#7F56D9" stroke-width="1.5" stroke-linecap="round" stroke-linejoin="round"/>
<path d="M9.0003 8.75C10.2429 8.75 11.2503 7.74264 11.2503 6.5C11.2503 5.25736 10.2429 4.25 9.0003 4.25C7.75766 4.25 6.7503 5.25736 6.7503 6.5C6.7503 7.74264 7.75766 8.75 9.0003 8.75Z" stroke="#7F56D9" stroke-width="1.5" stroke-linecap="round" stroke-linejoin="round"/>
</svg>
