<svg width="32" height="32" viewBox="0 0 32 32" fill="none" xmlns="http://www.w3.org/2000/svg">
<path d="M16.0007 20L12.0007 16M16.0007 20C17.8631 19.2917 19.6498 18.3983 21.334 17.3333M16.0007 20V26.6667C16.0007 26.6667 20.0407 25.9333 21.334 24C22.774 21.84 21.334 17.3333 21.334 17.3333M12.0007 16C12.7102 14.1592 13.6036 12.3948 14.6673 10.7333C16.2209 8.24932 18.3841 6.20406 20.9513 4.79212C23.5185 3.38018 26.4042 2.64849 29.334 2.66667C29.334 6.29333 28.294 12.6667 21.334 17.3333M12.0007 16H5.33398C5.33398 16 6.06732 11.96 8.00065 10.6667C10.1607 9.22667 14.6673 10.6667 14.6673 10.6667M6.00065 22C4.00065 23.68 3.33398 28.6667 3.33398 28.6667C3.33398 28.6667 8.32065 28 10.0007 26C10.9473 24.88 10.934 23.16 9.88065 22.12C9.36239 21.6253 8.67971 21.3395 7.96362 21.3174C7.24753 21.2952 6.54849 21.5383 6.00065 22Z" stroke="#7F56D9" stroke-width="2" stroke-linecap="round" stroke-linejoin="round"/>
</svg>
