<svg width="32" height="32" viewBox="0 0 32 32" fill="none" xmlns="http://www.w3.org/2000/svg">
<circle cx="16" cy="16" r="16" fill="#D7CBF3"/>
<g clip-path="url(#clip0_3326_2937)">
<path d="M13.0747 17.0051L15.1972 14.8826L9.93219 9.62509C8.76219 10.7951 8.76219 12.6926 9.93219 13.8701L13.0747 17.0051ZM18.1597 15.6476C19.3072 16.1801 20.9197 15.8051 22.1122 14.6126C23.5447 13.1801 23.8222 11.1251 22.7197 10.0226C21.6247 8.92759 19.5697 9.19759 18.1297 10.6301C16.9372 11.8226 16.5622 13.4351 17.0947 14.5826L9.77469 21.9026L10.8322 22.9601L15.9997 17.8076L21.1597 22.9676L22.2172 21.9101L17.0572 16.7501L18.1597 15.6476Z" fill="#7F56D9"/>
</g>
<defs>
<clipPath id="clip0_3326_2937">
<rect width="18" height="18" fill="white" transform="translate(7 7)"/>
</clipPath>
</defs>
</svg>
