<svg width="41" height="42" viewBox="0 0 41 42" fill="none" xmlns="http://www.w3.org/2000/svg">
<path d="M22.2077 5.73177L25.1702 13.4344C25.652 14.687 25.8929 15.3133 26.2675 15.8401C26.5995 16.307 27.0074 16.715 27.4743 17.047C28.0011 17.4216 28.6274 17.6624 29.88 18.1442L37.5827 21.1068L29.88 24.0693C28.6274 24.5511 28.0011 24.792 27.4743 25.1666C27.0074 25.4986 26.5995 25.9065 26.2675 26.3734C25.8929 26.9002 25.652 27.5265 25.1702 28.7791L22.2077 36.4818L19.2451 28.7791C18.7634 27.5265 18.5225 26.9002 18.1479 26.3734C17.8159 25.9065 17.4079 25.4986 16.941 25.1666C16.4142 24.792 15.7879 24.5511 14.5353 24.0693L6.83268 21.1068L14.5353 18.1442C15.7879 17.6624 16.4142 17.4216 16.941 17.047C17.4079 16.715 17.8159 16.307 18.1479 15.8401C18.5225 15.3133 18.7634 14.687 19.2451 13.4344L22.2077 5.73177Z" fill="#F9CD20"/>
<path d="M7.68685 38.1901V29.6484M7.68685 12.5651V4.02344M3.41602 8.29427H11.9577M3.41602 33.9193H11.9577M22.2077 5.73177L19.2451 13.4344C18.7634 14.687 18.5225 15.3133 18.1479 15.8401C17.8159 16.307 17.4079 16.715 16.941 17.047C16.4142 17.4216 15.7879 17.6624 14.5353 18.1442L6.83268 21.1068L14.5353 24.0693C15.7879 24.5511 16.4142 24.792 16.941 25.1666C17.4079 25.4986 17.8159 25.9065 18.1479 26.3734C18.5225 26.9002 18.7634 27.5265 19.2451 28.7791L22.2077 36.4818L25.1702 28.7791C25.652 27.5265 25.8929 26.9002 26.2675 26.3734C26.5995 25.9065 27.0074 25.4986 27.4743 25.1666C28.0011 24.792 28.6274 24.5511 29.88 24.0693L37.5827 21.1068L29.88 18.1442C28.6274 17.6624 28.0011 17.4216 27.4743 17.047C27.0074 16.715 26.5995 16.307 26.2675 15.8401C25.8929 15.3133 25.652 14.687 25.1702 13.4344L22.2077 5.73177Z" stroke="black" stroke-width="3" stroke-linecap="round" stroke-linejoin="round"/>
</svg>
