<svg width="24" height="25" viewBox="0 0 24 25" fill="none" xmlns="http://www.w3.org/2000/svg">
<path d="M7.55016 22.1228C16.6045 22.1228 21.5583 14.6195 21.5583 8.11466C21.5583 7.90373 21.5536 7.6881 21.5442 7.47716C22.5079 6.78026 23.3395 5.91706 24 4.9281C23.1025 5.3274 22.1496 5.58818 21.1739 5.70154C22.2013 5.08571 22.9705 4.11827 23.3391 2.97857C22.3726 3.55136 21.3156 3.95541 20.2134 4.17341C19.4708 3.38436 18.489 2.86192 17.4197 2.68685C16.3504 2.51179 15.2532 2.69385 14.2977 3.2049C13.3423 3.71595 12.5818 4.52751 12.1338 5.51411C11.6859 6.50072 11.5754 7.60742 11.8195 8.6631C9.86249 8.56489 7.94794 8.05651 6.19998 7.1709C4.45203 6.2853 2.90969 5.04224 1.67297 3.52232C1.0444 4.60605 0.852057 5.88845 1.13503 7.10889C1.418 8.32934 2.15506 9.39625 3.19641 10.0928C2.41463 10.068 1.64998 9.85748 0.965625 9.47873V9.53966C0.964925 10.677 1.3581 11.7794 2.07831 12.6596C2.79852 13.5398 3.80132 14.1434 4.91625 14.3678C4.19206 14.5659 3.43198 14.5948 2.69484 14.4522C3.00945 15.4302 3.62157 16.2857 4.44577 16.8991C5.26997 17.5126 6.26512 17.8534 7.29234 17.874C5.54842 19.2439 3.39417 19.9869 1.17656 19.9834C0.783287 19.9828 0.390399 19.9587 0 19.9112C2.25286 21.3566 4.87353 22.1242 7.55016 22.1228Z" fill="#D6BBFB"/>
</svg>
