<svg width="19" height="19" viewBox="0 0 19 19" fill="none" xmlns="http://www.w3.org/2000/svg">
<path d="M17 8H2M8.75 11H5M2 6.65L2 12.35C2 13.1901 2 13.6101 2.16349 13.931C2.3073 14.2132 2.53677 14.4427 2.81901 14.5865C3.13988 14.75 3.55992 14.75 4.4 14.75L14.6 14.75C15.4401 14.75 15.8601 14.75 16.181 14.5865C16.4632 14.4427 16.6927 14.2132 16.8365 13.931C17 13.6101 17 13.1901 17 12.35V6.65C17 5.80992 17 5.38988 16.8365 5.06902C16.6927 4.78677 16.4632 4.5573 16.181 4.41349C15.8601 4.25 15.4401 4.25 14.6 4.25L4.4 4.25C3.55992 4.25 3.13988 4.25 2.81901 4.41349C2.53677 4.5573 2.3073 4.78677 2.16349 5.06901C2 5.38988 2 5.80992 2 6.65Z" stroke="#7F56D9" stroke-width="1.5" stroke-linecap="round" stroke-linejoin="round"/>
</svg>
